<mxfile host="app.diagrams.net" modified="2023-11-02T12:03:29.949Z" agent="Mozilla/5.0 (Windows NT 10.0; Win64; x64) AppleWebKit/537.36 (KHTML, like Gecko) Chrome/117.0.0.0 Safari/537.36 OPR/103.0.0.0" etag="q00It3e6FTA49_uSBEKu" version="22.0.8" type="google">
  <diagram id="C5RBs43oDa-KdzZeNtuy" name="Page-1">
    <mxGraphModel grid="1" page="0" gridSize="10" guides="1" tooltips="1" connect="1" arrows="1" fold="1" pageScale="1" pageWidth="827" pageHeight="1169" math="0" shadow="0">
      <root>
        <mxCell id="WIyWlLk6GJQsqaUBKTNV-0" />
        <mxCell id="WIyWlLk6GJQsqaUBKTNV-1" parent="WIyWlLk6GJQsqaUBKTNV-0" />
        <mxCell id="zkfFHV4jXpPFQw0GAbJ--6" value="Доярка" style="swimlane;fontStyle=2;align=center;verticalAlign=top;childLayout=stackLayout;horizontal=1;startSize=26;horizontalStack=0;resizeParent=1;resizeLast=0;collapsible=1;marginBottom=0;rounded=0;shadow=0;strokeWidth=1;" vertex="1" parent="WIyWlLk6GJQsqaUBKTNV-1">
          <mxGeometry x="340" y="-110" width="165" height="138" as="geometry">
            <mxRectangle x="130" y="380" width="160" height="26" as="alternateBounds" />
          </mxGeometry>
        </mxCell>
        <mxCell id="zkfFHV4jXpPFQw0GAbJ--7" value="+Молоко" style="text;align=left;verticalAlign=top;spacingLeft=4;spacingRight=4;overflow=hidden;rotatable=0;points=[[0,0.5],[1,0.5]];portConstraint=eastwest;" vertex="1" parent="zkfFHV4jXpPFQw0GAbJ--6">
          <mxGeometry y="26" width="165" height="26" as="geometry" />
        </mxCell>
        <mxCell id="zkfFHV4jXpPFQw0GAbJ--9" value="" style="line;html=1;strokeWidth=1;align=left;verticalAlign=middle;spacingTop=-1;spacingLeft=3;spacingRight=3;rotatable=0;labelPosition=right;points=[];portConstraint=eastwest;" vertex="1" parent="zkfFHV4jXpPFQw0GAbJ--6">
          <mxGeometry y="52" width="165" height="8" as="geometry" />
        </mxCell>
        <mxCell id="7OG8PZKwR2Rr7zRyBxB8-16" value="+Доить коров&lt;br&gt;+Ухаживать за коровками" style="text;html=1;align=center;verticalAlign=middle;resizable=0;points=[];autosize=1;strokeColor=none;fillColor=none;" vertex="1" parent="zkfFHV4jXpPFQw0GAbJ--6">
          <mxGeometry y="60" width="165" height="40" as="geometry" />
        </mxCell>
        <mxCell id="zkfFHV4jXpPFQw0GAbJ--17" value="Управляющий фермой" style="swimlane;fontStyle=2;align=center;verticalAlign=top;childLayout=stackLayout;horizontal=1;startSize=26;horizontalStack=0;resizeParent=1;resizeLast=0;collapsible=1;marginBottom=0;rounded=0;shadow=0;strokeWidth=1;" vertex="1" parent="WIyWlLk6GJQsqaUBKTNV-1">
          <mxGeometry x="600" y="120" width="230" height="228" as="geometry">
            <mxRectangle x="550" y="140" width="160" height="26" as="alternateBounds" />
          </mxGeometry>
        </mxCell>
        <mxCell id="zkfFHV4jXpPFQw0GAbJ--18" value="+ контроль&#xa;+ ресурсы&#xa;+ финансы&#xa;" style="text;align=left;verticalAlign=top;spacingLeft=4;spacingRight=4;overflow=hidden;rotatable=0;points=[[0,0.5],[1,0.5]];portConstraint=eastwest;" vertex="1" parent="zkfFHV4jXpPFQw0GAbJ--17">
          <mxGeometry y="26" width="230" height="54" as="geometry" />
        </mxCell>
        <mxCell id="zkfFHV4jXpPFQw0GAbJ--23" value="" style="line;html=1;strokeWidth=1;align=left;verticalAlign=middle;spacingTop=-1;spacingLeft=3;spacingRight=3;rotatable=0;labelPosition=right;points=[];portConstraint=eastwest;" vertex="1" parent="zkfFHV4jXpPFQw0GAbJ--17">
          <mxGeometry y="80" width="230" height="8" as="geometry" />
        </mxCell>
        <mxCell id="7OG8PZKwR2Rr7zRyBxB8-10" value="+Организовывать и управлять&lt;br&gt;&amp;nbsp;работой&lt;br&gt;+ планировать задач&lt;br&gt;+Учавствовать в разработке &lt;br&gt;стратегии развития фермы&lt;br&gt;+Обеспечивать безопасности &lt;br&gt;на ферме и охрана&lt;br&gt;&amp;nbsp;имущества&lt;br&gt;+Вести отчетность" style="text;html=1;align=center;verticalAlign=middle;resizable=0;points=[];autosize=1;strokeColor=none;fillColor=none;" vertex="1" parent="zkfFHV4jXpPFQw0GAbJ--17">
          <mxGeometry y="88" width="230" height="140" as="geometry" />
        </mxCell>
        <mxCell id="51Dw1x1pwtMxwOW9pt8d-0" value="Специалист по питанию" style="swimlane;fontStyle=2;align=center;verticalAlign=top;childLayout=stackLayout;horizontal=1;startSize=26;horizontalStack=0;resizeParent=1;resizeLast=0;collapsible=1;marginBottom=0;rounded=0;shadow=0;strokeWidth=1;" vertex="1" parent="WIyWlLk6GJQsqaUBKTNV-1">
          <mxGeometry x="240" y="120" width="200" height="200" as="geometry">
            <mxRectangle x="230" y="140" width="160" height="26" as="alternateBounds" />
          </mxGeometry>
        </mxCell>
        <mxCell id="51Dw1x1pwtMxwOW9pt8d-1" value="+ корм&#xa;+ рацион коровок" style="text;align=left;verticalAlign=top;spacingLeft=4;spacingRight=4;overflow=hidden;rotatable=0;points=[[0,0.5],[1,0.5]];portConstraint=eastwest;" vertex="1" parent="51Dw1x1pwtMxwOW9pt8d-0">
          <mxGeometry y="26" width="200" height="44" as="geometry" />
        </mxCell>
        <mxCell id="51Dw1x1pwtMxwOW9pt8d-2" value="" style="line;html=1;strokeWidth=1;align=left;verticalAlign=middle;spacingTop=-1;spacingLeft=3;spacingRight=3;rotatable=0;labelPosition=right;points=[];portConstraint=eastwest;" vertex="1" parent="51Dw1x1pwtMxwOW9pt8d-0">
          <mxGeometry y="70" width="200" height="8" as="geometry" />
        </mxCell>
        <mxCell id="51Dw1x1pwtMxwOW9pt8d-3" value="+Разрабатывать рациона коров()&#xa;+контролировать рациона()&#xa;+распределять корма &#xa;согласно потребностям &#xa;животных()&#xa;+ контролировать качества корма" style="text;align=center;verticalAlign=top;spacingLeft=4;spacingRight=4;overflow=hidden;rotatable=0;points=[[0,0.5],[1,0.5]];portConstraint=eastwest;" vertex="1" parent="51Dw1x1pwtMxwOW9pt8d-0">
          <mxGeometry y="78" width="200" height="122" as="geometry" />
        </mxCell>
        <mxCell id="7OG8PZKwR2Rr7zRyBxB8-15" value="" style="endArrow=none;html=1;rounded=0;exitX=1.004;exitY=0.31;exitDx=0;exitDy=0;entryX=0.001;entryY=0.235;entryDx=0;entryDy=0;entryPerimeter=0;exitPerimeter=0;" edge="1" parent="WIyWlLk6GJQsqaUBKTNV-1" source="51Dw1x1pwtMxwOW9pt8d-1" target="zkfFHV4jXpPFQw0GAbJ--18">
          <mxGeometry width="50" height="50" relative="1" as="geometry">
            <mxPoint x="500" y="220" as="sourcePoint" />
            <mxPoint x="550" y="170" as="targetPoint" />
          </mxGeometry>
        </mxCell>
        <mxCell id="7OG8PZKwR2Rr7zRyBxB8-18" value="" style="endArrow=none;html=1;rounded=0;entryX=1;entryY=0.75;entryDx=0;entryDy=0;" edge="1" parent="WIyWlLk6GJQsqaUBKTNV-1" target="zkfFHV4jXpPFQw0GAbJ--6">
          <mxGeometry width="50" height="50" relative="1" as="geometry">
            <mxPoint x="660" y="120" as="sourcePoint" />
            <mxPoint x="710" y="70" as="targetPoint" />
          </mxGeometry>
        </mxCell>
        <mxCell id="7OG8PZKwR2Rr7zRyBxB8-19" value="Специалист по &#xa;техническому обсуживанию" style="swimlane;fontStyle=2;align=center;verticalAlign=top;childLayout=stackLayout;horizontal=1;startSize=40;horizontalStack=0;resizeParent=1;resizeLast=0;collapsible=1;marginBottom=0;rounded=0;shadow=0;strokeWidth=1;" vertex="1" parent="WIyWlLk6GJQsqaUBKTNV-1">
          <mxGeometry x="670" y="-140" width="185" height="158" as="geometry">
            <mxRectangle x="130" y="380" width="160" height="26" as="alternateBounds" />
          </mxGeometry>
        </mxCell>
        <mxCell id="7OG8PZKwR2Rr7zRyBxB8-20" value="+Оборудование коровника" style="text;align=left;verticalAlign=top;spacingLeft=4;spacingRight=4;overflow=hidden;rotatable=0;points=[[0,0.5],[1,0.5]];portConstraint=eastwest;" vertex="1" parent="7OG8PZKwR2Rr7zRyBxB8-19">
          <mxGeometry y="40" width="185" height="26" as="geometry" />
        </mxCell>
        <mxCell id="7OG8PZKwR2Rr7zRyBxB8-21" value="" style="line;html=1;strokeWidth=1;align=left;verticalAlign=middle;spacingTop=-1;spacingLeft=3;spacingRight=3;rotatable=0;labelPosition=right;points=[];portConstraint=eastwest;" vertex="1" parent="7OG8PZKwR2Rr7zRyBxB8-19">
          <mxGeometry y="66" width="185" height="8" as="geometry" />
        </mxCell>
        <mxCell id="7OG8PZKwR2Rr7zRyBxB8-22" value="+Обслужить оборудование&lt;br&gt;коровника&lt;br&gt;+Ремонтировать оборудование&lt;br&gt;&amp;nbsp;коровника" style="text;html=1;align=center;verticalAlign=middle;resizable=0;points=[];autosize=1;strokeColor=none;fillColor=none;" vertex="1" parent="7OG8PZKwR2Rr7zRyBxB8-19">
          <mxGeometry y="74" width="185" height="70" as="geometry" />
        </mxCell>
        <mxCell id="7OG8PZKwR2Rr7zRyBxB8-24" value="" style="endArrow=none;html=1;rounded=0;entryX=0.5;entryY=1;entryDx=0;entryDy=0;" edge="1" parent="WIyWlLk6GJQsqaUBKTNV-1" target="7OG8PZKwR2Rr7zRyBxB8-19">
          <mxGeometry width="50" height="50" relative="1" as="geometry">
            <mxPoint x="730" y="120" as="sourcePoint" />
            <mxPoint x="780" y="70" as="targetPoint" />
          </mxGeometry>
        </mxCell>
        <mxCell id="7OG8PZKwR2Rr7zRyBxB8-25" value="Ветеринар" style="swimlane;fontStyle=2;align=center;verticalAlign=top;childLayout=stackLayout;horizontal=1;startSize=26;horizontalStack=0;resizeParent=1;resizeLast=0;collapsible=1;marginBottom=0;rounded=0;shadow=0;strokeWidth=1;" vertex="1" parent="WIyWlLk6GJQsqaUBKTNV-1">
          <mxGeometry x="970" y="40" width="200" height="200" as="geometry">
            <mxRectangle x="130" y="380" width="160" height="26" as="alternateBounds" />
          </mxGeometry>
        </mxCell>
        <mxCell id="7OG8PZKwR2Rr7zRyBxB8-26" value="+лечение&#xa;+ информация о состоянии&#xa;каждой коровы&#xa;+ветеринарный паспорт" style="text;align=left;verticalAlign=top;spacingLeft=4;spacingRight=4;overflow=hidden;rotatable=0;points=[[0,0.5],[1,0.5]];portConstraint=eastwest;" vertex="1" parent="7OG8PZKwR2Rr7zRyBxB8-25">
          <mxGeometry y="26" width="200" height="74" as="geometry" />
        </mxCell>
        <mxCell id="7OG8PZKwR2Rr7zRyBxB8-27" value="" style="line;html=1;strokeWidth=1;align=left;verticalAlign=middle;spacingTop=-1;spacingLeft=3;spacingRight=3;rotatable=0;labelPosition=right;points=[];portConstraint=eastwest;" vertex="1" parent="7OG8PZKwR2Rr7zRyBxB8-25">
          <mxGeometry y="100" width="200" height="8" as="geometry" />
        </mxCell>
        <mxCell id="7OG8PZKwR2Rr7zRyBxB8-28" value="+ оформить ветеринарный паспорт&lt;br&gt;+диагностировать болезней у коров&lt;br&gt;+ провести профилактику у стада&lt;br&gt;+Вести роды у коров" style="text;html=1;align=center;verticalAlign=middle;resizable=0;points=[];autosize=1;strokeColor=none;fillColor=none;" vertex="1" parent="7OG8PZKwR2Rr7zRyBxB8-25">
          <mxGeometry y="108" width="200" height="70" as="geometry" />
        </mxCell>
        <mxCell id="7OG8PZKwR2Rr7zRyBxB8-29" value="" style="endArrow=none;html=1;rounded=0;entryX=-0.01;entryY=0.881;entryDx=0;entryDy=0;entryPerimeter=0;" edge="1" parent="WIyWlLk6GJQsqaUBKTNV-1" target="7OG8PZKwR2Rr7zRyBxB8-26">
          <mxGeometry width="50" height="50" relative="1" as="geometry">
            <mxPoint x="830" y="210" as="sourcePoint" />
            <mxPoint x="880" y="160" as="targetPoint" />
          </mxGeometry>
        </mxCell>
      </root>
    </mxGraphModel>
  </diagram>
</mxfile>
